<?xml version="1.0" ?><svg id="Layer_1" style="enable-background:new 0 0 120 120;" version="1.1" viewBox="0 0 120 120" xml:space="preserve" xmlns="http://www.w3.org/2000/svg" xmlns:xlink="http://www.w3.org/1999/xlink"><style type="text/css">
	.st0{fill:#BFDBFF;}
	.st1{fill:#7689FF;}
	.st2{fill:#FFFFFF;}
</style><g><path class="st0" d="M30.3,102.9h59.3c2.4,0,4.3-1.9,4.3-4.3v-77c0-2.4-1.9-4.3-4.3-4.3H30.3c-2.4,0-4.3,1.9-4.3,4.3v77   C26,100.9,27.9,102.9,30.3,102.9z"/><circle class="st1" cx="60" cy="45.5" r="18.2"/><g><circle class="st2" cx="60" cy="40.2" r="5.1"/><path class="st2" d="M60,46.6c-5.1,0-9.5,2.9-11.6,7.3v0.4c0,0.8,0.7,1.5,1.5,1.5h20.2c0.8,0,1.5-0.7,1.5-1.5v-0.4    C69.5,49.6,65.1,46.6,60,46.6z"/></g><g><path class="st2" d="M75.6,70.2H44.4c-1.2,0-2.2,1-2.2,2.2v4.5c0,1.2,1,2.2,2.2,2.2h31.1c1.2,0,2.2-1,2.2-2.2v-4.5    C77.8,71.2,76.8,70.2,75.6,70.2z"/><path class="st2" d="M75.6,83.2H44.4c-1.2,0-2.2,1-2.2,2.2v4.5c0,1.2,1,2.2,2.2,2.2h31.1c1.2,0,2.2-1,2.2-2.2v-4.5    C77.8,84.2,76.8,83.2,75.6,83.2z"/></g><g><path class="st0" d="M49.8,73.3c-0.8,0-1.4,0.6-1.4,1.4S49,76,49.8,76c0.8,0,1.4-0.6,1.4-1.4S50.6,73.3,49.8,73.3z"/><path class="st0" d="M54.9,73.3c-0.8,0-1.4,0.6-1.4,1.4s0.6,1.4,1.4,1.4s1.4-0.6,1.4-1.4S55.7,73.3,54.9,73.3z"/><path class="st0" d="M60,73.3c-0.8,0-1.4,0.6-1.4,1.4S59.2,76,60,76s1.4-0.6,1.4-1.4S60.8,73.3,60,73.3z"/><path class="st0" d="M65.1,73.3c-0.8,0-1.4,0.6-1.4,1.4s0.6,1.4,1.4,1.4s1.4-0.6,1.4-1.4S65.9,73.3,65.1,73.3z"/><path class="st0" d="M70.2,76c0.8,0,1.4-0.6,1.4-1.4s-0.6-1.4-1.4-1.4s-1.4,0.6-1.4,1.4S69.4,76,70.2,76z"/><path class="st0" d="M49.8,86.3c-0.8,0-1.4,0.6-1.4,1.4s0.6,1.4,1.4,1.4c0.8,0,1.4-0.6,1.4-1.4S50.6,86.3,49.8,86.3z"/><path class="st0" d="M54.9,86.3c-0.8,0-1.4,0.6-1.4,1.4s0.6,1.4,1.4,1.4s1.4-0.6,1.4-1.4S55.7,86.3,54.9,86.3z"/><path class="st0" d="M60,86.3c-0.8,0-1.4,0.6-1.4,1.4s0.6,1.4,1.4,1.4s1.4-0.6,1.4-1.4S60.8,86.3,60,86.3z"/><path class="st0" d="M65.1,86.3c-0.8,0-1.4,0.6-1.4,1.4s0.6,1.4,1.4,1.4s1.4-0.6,1.4-1.4S65.9,86.3,65.1,86.3z"/><path class="st0" d="M70.2,86.3c-0.8,0-1.4,0.6-1.4,1.4s0.6,1.4,1.4,1.4s1.4-0.6,1.4-1.4S71,86.3,70.2,86.3z"/></g><g><path class="st1" d="M75.6,69.7H44.4c-1.5,0-2.7,1.2-2.7,2.7v4.5c0,1.5,1.2,2.7,2.7,2.7h31.1c1.5,0,2.7-1.2,2.7-2.7v-4.5    C78.3,70.9,77.1,69.7,75.6,69.7z M77.3,76.9c0,1-0.8,1.7-1.7,1.7H44.4c-1,0-1.7-0.8-1.7-1.7v-4.5c0-1,0.8-1.7,1.7-1.7h31.1    c1,0,1.7,0.8,1.7,1.7V76.9z"/><path class="st1" d="M75.6,82.7H44.4c-1.5,0-2.7,1.2-2.7,2.7v4.5c0,1.5,1.2,2.7,2.7,2.7h31.1c1.5,0,2.7-1.2,2.7-2.7v-4.5    C78.3,83.9,77.1,82.7,75.6,82.7z M77.3,89.9c0,1-0.8,1.7-1.7,1.7H44.4c-1,0-1.7-0.8-1.7-1.7v-4.5c0-1,0.8-1.7,1.7-1.7h31.1    c1,0,1.7,0.8,1.7,1.7V89.9z"/></g></g></svg>