<!DOCTYPE svg PUBLIC "-//W3C//DTD SVG 1.1//EN" "http://www.w3.org/Graphics/SVG/1.1/DTD/svg11.dtd">
<!-- Uploaded to: SVG Repo, www.svgrepo.com, Transformed by: SVG Repo Mixer Tools -->
<svg width="800px" height="800px" viewBox="0 0 64 64" id="Layer_1" version="1.1" xml:space="preserve" xmlns="http://www.w3.org/2000/svg" xmlns:xlink="http://www.w3.org/1999/xlink" fill="#000000">
<g id="SVGRepo_bgCarrier" stroke-width="0"/>
<g id="SVGRepo_tracerCarrier" stroke-linecap="round" stroke-linejoin="round"/>
<g id="SVGRepo_iconCarrier"> <style type="text/css"> .st0{fill:none;stroke:#005BFF;stroke-width:2;stroke-linecap:round;stroke-linejoin:round;stroke-miterlimit:10;} .st1{fill:none;stroke:#005BFF;stroke-width:2;stroke-linecap:round;stroke-linejoin:round;stroke-miterlimit:10;} .st2{fill:none;stroke:#005BFF;stroke-width:2;stroke-linejoin:round;stroke-miterlimit:10;} .st3{fill:#FFFFFF;stroke:#005BFF;stroke-width:2;stroke-linecap:round;stroke-linejoin:round;stroke-miterlimit:10;} .st4{fill:#005BFF;} .st5{fill:none;stroke:#005BFF;stroke-width:2;stroke-miterlimit:10;} .st6{fill:none;stroke:#005BFF;stroke-width:2;stroke-miterlimit:10;} .st7{fill:none;stroke:#005BFF;stroke-width:2;stroke-linejoin:round;stroke-miterlimit:10;} .st8{fill:none;stroke:#005BFF;stroke-width:2;stroke-linecap:round;stroke-miterlimit:10;} .st9{fill:none;stroke:#005BFF;stroke-width:2;stroke-linecap:round;stroke-miterlimit:10;} </style> <g> <path class="st2" d="M36.6,38h-9.3c-0.2,0-0.4-0.2-0.4-0.4v-7.3c0-0.2,0.2-0.4,0.4-0.4h9.3c0.2,0,0.4,0.2,0.4,0.4v7.3 C37,37.8,36.8,38,36.6,38z"/> <path class="st2" d="M35,30H29c-0.2,0-0.4-0.2-0.4-0.4v-1.3c0-1.8,1.5-3.3,3.3-3.3h0c1.8,0,3.3,1.5,3.3,3.3v1.3 C35.3,29.8,35.2,30,35,30z"/> <line class="st1" x1="32" x2="32" y1="34" y2="34"/> </g> <path class="st0" d="M14.8,32c0-9.4,7.6-17,17-17s17,7.6,17,17s-7.6,17-17,17c-3.8,0-7.3-1.2-10.1-3.3"/> <circle class="st0" cx="19.9" cy="43.9" r="2.5"/> <polyline class="st0" points="17.8,30.2 15,33 12.2,30.2 "/> </g>
</svg>