<!DOCTYPE svg PUBLIC "-//W3C//DTD SVG 1.1//EN" "http://www.w3.org/Graphics/SVG/1.1/DTD/svg11.dtd">
<!-- Uploaded to: SVG Repo, www.svgrepo.com, Transformed by: SVG Repo Mixer Tools -->
<svg width="800px" height="800px" viewBox="0 0 24 24" xmlns="http://www.w3.org/2000/svg" fill="#000000">
<g id="SVGRepo_bgCarrier" stroke-width="0"/>
<g id="SVGRepo_tracerCarrier" stroke-linecap="round" stroke-linejoin="round"/>
<g id="SVGRepo_iconCarrier"> <defs> <style>.cls-1{fill:#2F4BFF;}.cls-2{fill:#5269ff;}.cls-3{fill:#2F4BFF;}</style> </defs> <title>Icon_24px_CloudCode_Color</title> <g data-name="Product Icons"> <g> <g data-name="Layer 1-2"> <polygon class="cls-1" points="5.45 8.53 8.55 5.42 11.65 8.53 8.55 11.65 5.45 8.53"/> <polygon class="cls-2" points="2 12 5.1 8.88 8.2 12 5.1 15.12 2 12"/> <polygon class="cls-3" points="5.45 15.47 8.55 12.35 11.65 15.47 8.55 18.59 5.45 15.47"/> <polygon class="cls-1" points="12.35 8.53 15.45 5.42 18.55 8.53 15.45 11.65 12.35 8.53"/> <polygon class="cls-2" points="15.8 12 18.9 8.88 22 12 18.9 15.12 15.8 12"/> <polygon class="cls-3" points="12.35 15.47 15.45 12.35 18.55 15.47 15.45 18.59 12.35 15.47"/> </g> </g> </g> </g>
</svg>