<?xml version="1.0" standalone="no"?>
<!DOCTYPE svg PUBLIC "-//W3C//DTD SVG 20010904//EN"
 "http://www.w3.org/TR/2001/REC-SVG-20010904/DTD/svg10.dtd">
<svg version="1.0" xmlns="http://www.w3.org/2000/svg"
 width="700.000000pt" height="700.000000pt" viewBox="0 0 700.000000 700.000000"
 preserveAspectRatio="xMidYMid meet">
<metadata>
Created by potrace 1.14, written by Peter Selinger 2001-2017
</metadata>
<g transform="translate(0.000000,700.000000) scale(0.100000,-0.100000)"
fill="#000000" stroke="none">
<path d="M265 6981 c-110 -39 -178 -99 -227 -199 l-33 -67 0 -3215 0 -3215 33
-67 c41 -84 118 -156 204 -191 l63 -26 3205 2 3205 2 66 32 c82 40 141 100
182 183 l32 65 0 3215 0 3215 -32 66 c-41 82 -100 141 -183 182 l-65 32 -3200
2 c-3045 2 -3202 1 -3250 -16z"/>
</g>
</svg>
